<svg width="22.421" height="17.578" viewBox="0 0 22.421 17.578" xmlns="http://www.w3.org/2000/svg" class="animated-svg"><style>
        .animated-svg path {
          stroke-dasharray: 1000;
          stroke-dashoffset: 1000;
          stroke: #000000;
          animation: draw 6s ease-in-out infinite;
          animation-play-state: running;
        }
        @keyframes draw {
          0% { stroke-dashoffset: 1000; }
          50% { stroke-dashoffset: 0; }
          100% { stroke-dashoffset: -1000; }
        }
      </style><g id="svgGroup" stroke-linecap="round" fill-rule="evenodd" font-size="9pt" stroke="#000000" stroke-width="0.25mm" fill="#000000" style="stroke:#000000;stroke-width:0.25mm;fill:#000000"><path d="M 19.06 16.292 L 13.72 10.832 Q 13.6 11.832 13.52 12.812 Q 13.44 13.792 13.38 14.552 Q 13.36 14.732 13.24 14.792 Q 13.12 14.852 12.94 14.852 Q 12.62 14.852 12.21 14.752 Q 11.8 14.652 11.42 14.362 Q 11.04 14.072 10.82 13.522 A 2.967 2.967 0 0 1 10.647 12.429 A 5.805 5.805 0 0 1 10.66 12.052 Q 10.74 10.992 10.84 9.572 Q 10.94 8.152 11.02 6.552 Q 11.1 4.952 11.16 3.352 Q 11.22 1.752 11.22 0.332 Q 11.26 0.172 11.46 0.102 Q 11.66 0.032 11.92 0.032 Q 12.4 0.032 12.91 0.262 Q 13.42 0.492 13.77 1.042 Q 14.12 1.592 14.12 2.572 Q 14.12 3.432 14.04 4.442 Q 13.96 5.452 13.9 6.612 Q 14.9 5.512 15.78 4.312 Q 16.66 3.112 17.35 1.992 Q 18.04 0.872 18.46 0.012 Q 19.56 0.012 19.99 0.552 Q 20.42 1.092 20.42 2.032 Q 20.42 2.532 20 3.282 Q 19.58 4.032 18.87 4.912 Q 18.16 5.792 17.28 6.732 Q 16.4 7.672 15.48 8.572 L 22.28 16.912 Q 22.42 17.072 22.42 17.252 Q 22.42 17.572 22.06 17.572 Q 21.72 17.572 21.19 17.452 Q 20.66 17.332 20.09 17.052 Q 19.52 16.772 19.06 16.292 Z M 0.38 11.972 L 5.64 2.792 Q 5.12 2.892 4.54 3.042 Q 3.96 3.192 3.45 3.302 Q 2.94 3.412 2.64 3.412 Q 1.7 3.412 1.13 3.042 Q 0.56 2.672 0.31 2.192 Q 0.06 1.712 0.06 1.352 Q 0.06 1.192 0.22 1.112 A 1.022 1.022 0 0 1 0.5 1.012 Q 0.64 0.992 1.17 0.902 Q 1.7 0.812 2.46 0.692 Q 3.22 0.572 4.01 0.452 Q 4.8 0.332 5.47 0.252 Q 6.14 0.172 6.48 0.172 Q 6.96 0.172 7.53 0.432 Q 8.1 0.692 8.4 1.032 Q 8.98 1.192 9.3 1.622 Q 9.62 2.052 9.62 2.452 Q 9.62 2.652 9.52 2.802 Q 9.42 2.952 9.22 3.212 Q 7.8 5.172 6.37 7.552 Q 4.94 9.932 3.66 12.332 Q 4.22 12.232 4.78 12.152 Q 5.34 12.072 5.7 12.072 Q 6.12 12.072 6.62 12.212 Q 7.12 12.352 7.58 12.572 Q 8.04 12.792 8.34 13.082 Q 8.64 13.372 8.64 13.672 A 0.324 0.324 0 0 1 8.4 13.972 Q 8.16 14.072 7.5 14.152 Q 7.04 14.212 6.36 14.362 Q 5.68 14.512 4.94 14.692 Q 4.2 14.872 3.55 15.002 Q 2.9 15.132 2.5 15.132 Q 2.14 15.132 1.68 14.912 Q 1.22 14.692 0.96 14.232 Q 0.56 14.032 0.28 13.772 Q 0 13.512 0 13.272 Q 0 12.932 0.09 12.612 Q 0.18 12.292 0.38 11.972 Z"/></g></svg>